<svg id="app-logo" viewBox="0 0 56 32" fill="none" xmlns="http://www.w3.org/2000/svg">
  <path fill="#fff" d="M14.308 11.993c-1.366-0.653-2.79-1.187-4.037-2.019-0.831-0.534-1.603-1.247-2.137-2.197-0.416-0.772-0.95-1.484-1.9-0.534-0.119 0.119-0.237 0-0.356-0.594-0.534-1.959-1.544-2.731-3.74-2.731-1.603 0-1.9 1.128-1.84 2.315 0 1.187 0.772 1.84 1.9 2.019 0.297 0.059 0.653 0 1.009 0-0.297-0.237-0.534 0.059-0.772 0.119-0.059 0-0.178 0.059-0.237 0.059-0.891 0.356-1.959 0.653-1.722 1.959 0.237 1.187 1.009 1.959 2.256 1.959 1.069 0 2.494 0.594 2.731-1.306 0-0.178 0.297-0.297 0.475-0.475-0.059 0.178-0.059 0.356-0.119 0.534-0.237 0.891 0.237 1.365 1.009 1.306l2.553 0.594 5.224 2.137v-3.028l-0.297-0.119z"></path>
  <path fill="#000" d="M14.961 15.733l-5.64-2.315-2.494-0.594c-0.475 0-0.891-0.119-1.128-0.416-0.059-0.119-0.119-0.237-0.178-0.416-0.237 0.534-0.712 0.831-1.484 0.831-0.237 0-0.475 0-0.712-0.059-0.237 0-0.416-0.059-0.594-0.059-1.365 0-2.315-0.831-2.553-2.197-0.237-1.247 0.594-1.722 1.365-2.078-1.009-0.297-1.544-1.069-1.544-2.137 0-0.653 0-2.612 2.137-2.672h0.119c2.197 0 3.325 0.891 3.918 3.028 0 0.119 0.059 0.178 0.059 0.237 0.297-0.237 0.534-0.356 0.831-0.356 0.653 0 1.069 0.712 1.306 1.128 0.475 0.772 1.128 1.484 2.019 2.078 0.831 0.534 1.722 0.95 2.612 1.306 0.475 0.237 0.95 0.416 1.425 0.653l0.475 0.356v3.681zM6.887 12.23l2.612 0.594 4.868 2.019v-2.434l-0.178-0.119c-0.416-0.178-0.891-0.416-1.365-0.594-0.891-0.416-1.84-0.831-2.672-1.366-1.009-0.653-1.722-1.425-2.256-2.315-0.237-0.416-0.475-0.831-0.772-0.831-0.178 0-0.356 0.119-0.594 0.356-0.119 0.119-0.237 0.119-0.297 0.119-0.356 0-0.475-0.416-0.594-0.831-0.534-1.9-1.425-2.612-3.384-2.612h-0.119c-1.128 0-1.603 0.594-1.603 2.019 0 1.306 1.069 1.662 1.662 1.781 0.119 0 0.237 0 0.356 0 0.178-0.059 0.534-0.119 0.772 0.059l0.772 0.534h-0.95c-0.119 0-0.237 0-0.297 0h-0.178c-0.059 0.059-0.178 0.059-0.297 0.059 0 0-0.059 0-0.119 0.059l-0.178 0.178c-0.95 0.356-1.484 0.594-1.365 1.484 0.178 1.128 0.95 1.722 2.019 1.722 0.237 0 0.416 0 0.653 0.059 0.237 0 0.416 0.059 0.653 0.059 0.475 0 1.009-0.059 1.069-1.128 0-0.237 0.237-0.416 0.416-0.534 0.059-0.059 0.119-0.059 0.178-0.119l0.653-0.534-0.178 1.009c0 0.119-0.059 0.237-0.059 0.416-0.059 0.237-0.119 0.534 0.059 0.712s0.475 0.178 0.712 0.178v0z"></path>
  <path fill="#fff" d="M41.618 14.486c1.306-0.653 2.612-1.365 3.918-2.078 1.069-0.534 2.256-0.772 3.503-0.712 0.416 0.059 0.831-0.119 1.009-0.534 0.178-0.356 0.059-0.653-0.178-0.95-0.119-0.119-0.237-0.297-0.356-0.416 0.059 0 0.178-0.059 0.237-0.059 0.297 0 0.653 0 0.712 0.356 0.119 1.425 1.128 1.425 2.197 1.425 1.306 0 2.375-0.356 2.968-1.603 0.534-1.306-0.416-2.315-2.375-2.553-0.119 0-0.237 0-0.356-0.059 0.119 0 0.237-0.059 0.356 0 0.95 0.119 1.781-0.119 2.256-1.009 0.356-0.653 0.534-1.425 0-2.019-1.009-1.069-2.315-1.306-3.681-0.95-1.247 0.356-2.256 1.069-2.256 2.553 0 0.356-0.237 0.237-0.416 0.237-0.95-0.119-1.544 0.297-1.9 1.128-0.475 1.187-1.662 1.662-2.672 2.256-0.95 0.594-1.959 1.069-2.909 1.662l-0.059 3.325z"></path>
  <path fill="#000" d="M41.321 14.961l-0.059-3.918 0.178-0.059c0.475-0.297 0.95-0.534 1.425-0.772 0.534-0.297 1.009-0.534 1.484-0.831 0.178-0.119 0.356-0.178 0.534-0.297 0.831-0.475 1.662-0.891 2.019-1.781 0.416-1.009 1.128-1.484 2.256-1.306 0.059 0 0.059 0 0.119 0 0-1.425 0.831-2.375 2.434-2.79 1.544-0.475 2.968-0.059 3.978 1.009 0.534 0.594 0.534 1.425 0.059 2.375-0.237 0.475-0.594 0.831-1.009 1.009 0.475 0.237 0.891 0.534 1.128 0.95 0.297 0.475 0.297 1.069 0.059 1.662-0.653 1.603-2.137 1.84-3.147 1.84h-0.119c-0.831 0-1.722 0-2.197-0.772 0 0.059-0.059 0.119-0.059 0.237-0.237 0.475-0.712 0.772-1.306 0.712-1.187-0.059-2.256 0.119-3.325 0.653-0.772 0.356-1.484 0.772-2.256 1.187-0.534 0.297-1.128 0.594-1.662 0.891h-0.534zM41.915 11.399l0.059 2.612c0.416-0.237 0.831-0.416 1.247-0.653 0.772-0.416 1.484-0.772 2.256-1.187 1.187-0.594 2.375-0.831 3.681-0.712 0.059 0 0.059 0 0.119 0 0.475 0 0.594-0.297 0.594-0.356 0.059-0.178 0.119-0.356-0.119-0.653l-0.772-0.831 0.534-0.059c0.119 0 0.178-0.059 0.237-0.059 0.356 0 0.95 0.059 1.009 0.653 0.119 1.069 0.712 1.128 1.84 1.128h0.119c1.365 0 2.137-0.475 2.553-1.425 0.178-0.416 0.178-0.772 0-1.128-0.297-0.534-1.069-0.891-2.078-1.009l-0.356-0.059v-0.594h0.119c0.119 0 0.178 0 0.297 0 0.891 0.119 1.544-0.119 1.959-0.891 0.297-0.475 0.475-1.187 0.059-1.662-0.831-0.95-2.019-1.247-3.384-0.831-1.425 0.416-2.019 1.128-2.019 2.315 0 0.178-0.059 0.297-0.178 0.416s-0.356 0.178-0.594 0.119c-0.119 0-0.237-0.059-0.356-0.059-0.594 0-1.009 0.297-1.306 0.95-0.475 1.128-1.365 1.603-2.256 2.078-0.178 0.119-0.356 0.178-0.534 0.297-0.475 0.297-1.009 0.594-1.544 0.891-0.356 0.237-0.772 0.475-1.187 0.712z"></path>
  <path fill="#fff" d="M20.898 24.816c-2.731 1.247-5.403 2.553-8.074 3.859-0.237 0.119-0.534 0.356-0.653 0.594-0.534 1.662-1.603 2.315-3.265 2.019-1.128-0.178-1.722-0.831-1.247-2.019 0.059-0.059 0.059-0.178 0.059-0.237-0.059 0-0.178 0-0.237 0-0.95 0.237-1.662-0.178-1.959-1.069s-0.119-1.722 0.534-2.315c0.831-0.772 1.84-0.534 2.731-0.119s1.722 1.069 2.85 0.534c2.256-1.009 4.512-2.019 6.768-3.028l2.494 1.781z"></path>
  <path fill="#000" d="M9.618 31.703c-0.237 0-0.534 0-0.772-0.059-0.712-0.119-1.247-0.416-1.484-0.891-0.237-0.356-0.237-0.831-0.059-1.366-1.009 0.119-1.722-0.297-2.078-1.306s-0.119-1.959 0.653-2.672c0.416-0.356 0.95-0.594 1.484-0.594 0.594 0 1.187 0.237 1.603 0.416 0.178 0.059 0.297 0.178 0.475 0.237 0.712 0.356 1.425 0.653 2.137 0.297 1.484-0.653 2.909-1.306 4.393-1.959 0.831-0.356 1.603-0.712 2.434-1.069l0.178-0.059 3.028 2.137-0.475 0.237c-2.434 1.128-4.987 2.375-8.074 3.859-0.237 0.119-0.416 0.297-0.475 0.416-0.594 1.603-1.603 2.375-2.968 2.375zM8.074 28.735l-0.059 0.475c0 0.059 0 0.178-0.059 0.237-0.178 0.475-0.178 0.831-0.059 1.069 0.178 0.297 0.534 0.475 1.069 0.594 1.544 0.297 2.434-0.297 2.968-1.84 0.119-0.416 0.594-0.653 0.772-0.772 2.909-1.425 5.343-2.612 7.599-3.681l-1.9-1.425c-0.772 0.356-1.484 0.653-2.256 1.009-1.484 0.653-2.909 1.306-4.393 1.959-0.297 0.119-0.594 0.237-0.95 0.237-0.653 0-1.187-0.297-1.722-0.534-0.178-0.059-0.297-0.178-0.475-0.237-1.128-0.534-1.781-0.475-2.434 0.059-0.772 0.653-0.653 1.484-0.475 2.019 0.297 0.772 0.831 1.069 1.603 0.891 0.059 0 0.178 0 0.237 0l0.534-0.059z"></path>
  <path fill="#fff" d="M35.028 24.816c2.375 1.247 4.809 2.434 7.184 3.622 0.712 0.356 0.891 1.069 1.247 1.722 0.891 1.9 3.265 2.078 4.453 0.356 0.534-0.772 0.356-1.425-0.356-2.019-0.059-0.059-0.059-0.119-0.119-0.178 0.059 0 0.119 0 0.178 0.059 0.653 0.237 1.247 0.712 1.84-0.059 0.534-0.653 0.653-1.366 0.237-2.137-0.475-0.831-1.187-1.306-2.197-1.069-0.712 0.178-1.484 0.297-2.019 0.712-1.069 0.772-1.84 0.534-2.909-0.119-1.722-1.009-3.622-1.781-5.462-2.672l-2.078 1.781z"></path>
  <path fill="#000" d="M45.774 32c0 0 0 0 0 0-1.069 0-2.078-0.653-2.553-1.662-0.059-0.119-0.119-0.237-0.178-0.356-0.237-0.534-0.475-1.009-0.95-1.247-1.069-0.534-2.137-1.069-3.147-1.603-1.365-0.653-2.672-1.366-4.037-2.019l-0.416-0.178 2.672-2.197 0.178 0.059c0.534 0.297 1.128 0.534 1.662 0.772 1.247 0.594 2.553 1.187 3.8 1.9 0.475 0.297 0.95 0.534 1.484 0.534 0.356 0 0.712-0.119 1.128-0.416 0.534-0.416 1.247-0.534 1.9-0.712l0.237-0.059c1.009-0.237 1.9 0.178 2.493 1.187 0.475 0.772 0.356 1.603-0.237 2.434-0.356 0.475-0.891 0.653-1.365 0.475 0.297 0.534 0.237 1.128-0.178 1.722-0.712 0.891-1.544 1.366-2.493 1.366zM35.562 24.757c1.187 0.594 2.434 1.247 3.622 1.84 1.069 0.534 2.137 1.069 3.147 1.603 0.653 0.356 0.95 0.95 1.187 1.544 0.059 0.119 0.119 0.237 0.178 0.356 0.416 0.831 1.187 1.366 2.019 1.366 0.712 0 1.425-0.356 1.9-1.069 0.416-0.594 0.356-1.128-0.297-1.603-0.059-0.059-0.119-0.119-0.178-0.178l-0.416-0.594 0.653 0.059c0.119 0 0.178 0 0.297 0.059 0.059 0.059 0.178 0.059 0.237 0.119 0.237 0.119 0.534 0.237 0.712 0.237 0.119 0 0.297-0.059 0.534-0.297 0.475-0.653 0.594-1.187 0.237-1.781-0.475-0.772-1.069-1.128-1.84-0.95l-0.237 0.059c-0.594 0.119-1.247 0.297-1.722 0.594-0.475 0.356-0.95 0.534-1.425 0.534-0.653 0-1.187-0.297-1.781-0.594-1.187-0.712-2.493-1.306-3.74-1.84-0.534-0.237-1.009-0.475-1.544-0.712l-1.544 1.247z"></path>
  <path fill="#23cf61" d="M41.321 13.417c0 7.41-6.007 13.417-13.417 13.417s-13.417-6.007-13.417-13.417c0-7.41 6.007-13.417 13.417-13.417s13.417 6.007 13.417 13.417z"></path>
  <path fill="#000" d="M25.885 7.243c3.859 0 7.54 0.594 10.983 2.375 0.772 0.416 1.306 1.009 0.831 1.84-0.475 0.891-1.187 0.712-2.019 0.297-4.75-2.315-9.677-2.612-14.783-1.425-0.831 0.178-1.603 0.178-1.84-0.772-0.297-0.95 0.297-1.425 1.187-1.662 1.84-0.416 3.74-0.653 5.64-0.653z"></path>
  <path fill="#000" d="M34.85 16.208c-1.009-0.416-2.019-0.95-3.147-1.366-3.443-1.187-6.887-1.306-10.39-0.356-0.653 0.178-1.187 0-1.425-0.712-0.178-0.712 0.237-1.128 0.891-1.306 5.106-1.306 9.974-0.831 14.605 1.781 0.475 0.237 0.712 0.653 0.534 1.187-0.119 0.534-0.475 0.772-1.069 0.772z"></path>
  <path fill="#000" d="M25.707 16.148c2.85-0.059 5.521 0.534 7.955 1.9 0.534 0.297 0.831 0.712 0.534 1.247-0.356 0.534-0.831 0.475-1.306 0.178-3.503-2.019-7.243-2.019-11.043-1.247-0.594 0.119-1.187 0.178-1.366-0.534-0.178-0.772 0.416-0.95 1.009-1.069 1.366-0.237 2.79-0.475 4.215-0.475z"></path>
</svg>